<?xml version="1.0" standalone="no"?><!DOCTYPE svg PUBLIC "-//W3C//DTD SVG 1.1//EN" "http://www.w3.org/Graphics/SVG/1.1/DTD/svg11.dtd"><svg t="1542003714690" class="icon" style="" viewBox="0 0 1024 1024" version="1.1" xmlns="http://www.w3.org/2000/svg" p-id="10679" xmlns:xlink="http://www.w3.org/1999/xlink" width="200" height="200"><defs><style type="text/css"></style></defs><path d="M696.167585 801.130408l0 121.722778L102.637089 922.853186 102.637089 329.808159l121.655039 0 0-96.924366L30.290981 232.883793C16.680926 232.878148 5.644983 243.91409 5.644983 257.529791l0 737.601764c0 13.610055 11.035943 24.645998 24.645998 24.645998L768.508049 1019.777552c13.610055 0 24.645998-11.035943 24.645998-24.645998l0-194.001147L696.167585 801.130408z" fill="#777" p-id="10680"></path><path d="M991.49054 5.644983 238.641676 5.644983c-12.469768 0-22.579934 10.110165-22.579934 22.579934l0 752.848864c0 12.469768 10.110165 22.579934 22.579934 22.579934l752.848864 0c12.469768 0 22.579934-10.110165 22.579934-22.579934L1014.070474 28.224917C1014.070474 15.755149 1003.960309 5.644983 991.49054 5.644983zM890.908225 428.171996c0 3.116031-2.337023 5.644983-5.22161 5.644983l-241.452878 0 0 241.452878c0 2.878942-2.523308 5.215965-5.644983 5.215965l-47.039647 0c-3.121676 0-5.644983-2.337023-5.644983-5.215965L585.904123 433.816979 344.451246 433.816979c-2.890232 0-5.227255-2.528953-5.227255-5.644983l0-47.039647c0-3.116031 2.337023-5.644983 5.227255-5.644983l241.447233 0L585.898479 134.034487c0-2.890232 2.528953-5.227255 5.644983-5.227255l47.039647 0c3.121676 0 5.644983 2.337023 5.644983 5.227255l0 241.447233 241.452878 0c2.884587 0 5.22161 2.528953 5.22161 5.644983L890.90258 428.171996z" fill="#777" p-id="10681"></path></svg>