<?xml version="1.0" standalone="no"?><!DOCTYPE svg PUBLIC "-//W3C//DTD SVG 1.1//EN" "http://www.w3.org/Graphics/SVG/1.1/DTD/svg11.dtd"><svg t="1542004454301" class="icon" style="" viewBox="0 0 1024 1024" version="1.1" xmlns="http://www.w3.org/2000/svg" p-id="10471" xmlns:xlink="http://www.w3.org/1999/xlink" width="200" height="200"><defs><style type="text/css"></style></defs><path d="M834.56 97.28H189.44c-51.2 0-97.28 40.96-97.28 97.28v640c0 51.2 40.96 97.28 97.28 97.28h640c51.2 0 97.28-40.96 97.28-97.28v-640c0-51.2-40.96-97.28-92.16-97.28z m-5.12 465.92H552.96v276.48c0 20.48-20.48 40.96-40.96 40.96s-40.96-20.48-40.96-40.96V563.2H194.56c-20.48 0-40.96-15.36-40.96-35.84 0-20.48 20.48-40.96 40.96-40.96h276.48V209.92c0-20.48 20.48-40.96 40.96-40.96s40.96 20.48 40.96 40.96V486.4h276.48c20.48 0 40.96 20.48 40.96 40.96s-20.48 35.84-40.96 35.84z" fill="#777" p-id="10472"></path></svg>