<?xml version="1.0" standalone="no"?><!DOCTYPE svg PUBLIC "-//W3C//DTD SVG 1.1//EN" "http://www.w3.org/Graphics/SVG/1.1/DTD/svg11.dtd"><svg t="1542004261634" class="icon" style="" viewBox="0 0 1024 1024" version="1.1" xmlns="http://www.w3.org/2000/svg" p-id="3549" xmlns:xlink="http://www.w3.org/1999/xlink" width="200" height="200"><defs><style type="text/css"></style></defs><path d="M969.6 54.4C934.4 22.4 886.4 0 835.2 0H188.8C137.6 0 89.6 22.4 54.4 54.4 22.4 89.6 0 137.6 0 188.8v646.4c0 51.2 22.4 99.2 54.4 134.4 35.2 32 83.2 54.4 134.4 54.4h646.4c51.2 0 99.2-22.4 134.4-54.4 35.2-35.2 54.4-80 54.4-134.4V188.8c0-51.2-22.4-99.2-54.4-134.4z m-182.4 678.4c16 16 16 38.4 0 54.4s-38.4 16-54.4 0L512 566.4l-220.8 220.8c-16 16-38.4 16-54.4 0s-16-38.4 0-54.4l220.8-220.8-220.8-220.8c-12.8-16-12.8-38.4 0-54.4 16-12.8 38.4-12.8 54.4 0l220.8 220.8 220.8-220.8c16-16 38.4-16 54.4 0s16 38.4 0 54.4L566.4 512l220.8 220.8z" fill="#777" p-id="3550"></path></svg>